# xmcd
#
# Track frame offsets: 
#        150
#        23671
#        49137
#        70034
#        89809
#        108392
#        126959
#        151027
#        174422
#        192911
#
# Disc length: 2735 seconds
#
# Revision: 0
# Processed by: cddbd v1.5.2PL0 Copyright (c) Steve Scherf et al.
# Submitted via: ExactAudioCopy v0.99pb4
#
DISCID=7e0aad0a
DTITLE=Jay Stulo - Gone Crazy
DYEAR=2002
DGENRE=Blues
TTITLE0=Strange Things Happening
TTITLE1=My Other Woman Has Another Man
TTITLE2=Gone Crazy
TTITLE3=Let The Devil Drive
TTITLE4=Your Gonna Miss Me
TTITLE5=I Don't Think You Love Me
TTITLE6=Nobody But You
TTITLE7=There's Something Going On
TTITLE8=The Worst News You Ever Had
TTITLE9=I Can't Give You Love
EXTD=
EXTT0=
EXTT1=
EXTT2=
EXTT3=
EXTT4=
EXTT5=
EXTT6=
EXTT7=
EXTT8=
EXTT9=
PLAYORDER=
